<?xml version="1.0" encoding="UTF-8"?>
<svg xmlns="http://www.w3.org/2000/svg" version="1.1" viewBox="0 0 306 344.4">
  <defs>
    <style>
      .cls-1 {
        opacity: .2;
      }

      .cls-2 {
        opacity: .1;
      }

      .cls-3 {
        fill: #0099dc;
      }

      .cls-4 {
        fill: #fff;
        font-family: Arial-Black, 'Arial Black';
        font-size: 81.6px;
        font-weight: 800;
      }
    </style>
  </defs>
  <!-- Generator: Adobe Illustrator 28.6.0, SVG Export Plug-In . SVG Version: 1.2.0 Build 709)  -->
  <g>
    <g id="Layer_1">
      <g id="Layer_1-2" data-name="Layer_1">
        <g id="Layer_1-2">
          <g>
            <path class="cls-3" d="M302.1,258.2h0c2.4-4.1,3.9-8.7,3.9-13V99.1c0-4.2-1.5-8.9-3.9-13.1h0c-2.4-4.1-5.7-7.7-9.4-9.8L166.2,3.2c-7.3-4.2-19.2-4.2-26.5,0L13.2,76.2c-7.3,4.2-13.2,14.5-13.2,22.9v146.1c0,4.2,1.5,8.9,3.9,13.1h0c2.4,4.2,5.7,7.8,9.4,9.9l126.5,73c7.3,4.2,19.2,4.2,26.5,0h0l126.5-73c3.6-2.1,7-5.7,9.4-9.9"/>
            <path class="cls-1" d="M3.9,258.3c2.4,4.2,5.7,7.8,9.4,9.9l126.5,73c7.3,4.2,19.2,4.2,26.5,0h0l126.5-73c3.6-2.1,7-5.7,9.4-9.9l-149.1-86.1L3.9,258.3Z"/>
            <path class="cls-2" d="M302.1,258.3c2.4-4.2,3.9-8.8,3.9-13.1V99.1c0-4.2-1.5-8.9-3.9-13.1l-149.1,86.1,149.1,86.1h0Z"/>
          </g>
        </g>
      </g>
      <text class="cls-4" transform="translate(39.9 199)"><tspan x="0" y="0">PPL+</tspan></text>
    </g>
  </g>
</svg>